<mxfile host="app.diagrams.net" modified="2024-03-07T07:41:17.105Z" agent="Mozilla/5.0 (Windows NT 10.0; Win64; x64) AppleWebKit/537.36 (KHTML, like Gecko) Chrome/122.0.0.0 Safari/537.36" etag="rakEalvO1k-FxkEzE3cb" version="23.1.7" type="device">
  <diagram name="페이지-1" id="EpX1TBGKaBH0k2pbxYoH">
    <mxGraphModel dx="1646" dy="446" grid="1" gridSize="10" guides="1" tooltips="1" connect="1" arrows="1" fold="1" page="1" pageScale="1" pageWidth="827" pageHeight="1169" math="0" shadow="0">
      <root>
        <mxCell id="0" />
        <mxCell id="1" parent="0" />
        <mxCell id="_yqGc-fgBB0SN-r2A2sH-1" value="&lt;h1&gt;학점 산출 프로그램 시나리오&lt;/h1&gt;&lt;div&gt;Good School 학교가 있습니다. 이 학교에는 5명의 학생들이 수업을 듣습니다. 과목은 국어와 수학이 있고, 각 학생은 두 과목을 모두 수강합니다. 그리고, 컴퓨터공학과 학생은 수학이 국어국문학과 학생은 국어가 필수 과목입니다. 이번 학기 각 학생의 과목별 성적은 다음과 같습니다.&lt;/div&gt;" style="text;html=1;spacing=5;spacingTop=-20;whiteSpace=wrap;overflow=hidden;rounded=0;" vertex="1" parent="1">
          <mxGeometry x="50" y="50" width="730" height="120" as="geometry" />
        </mxCell>
        <mxCell id="_yqGc-fgBB0SN-r2A2sH-2" value="학생&lt;br&gt;(Student)" style="rounded=0;whiteSpace=wrap;html=1;" vertex="1" parent="1">
          <mxGeometry x="220" y="277" width="120" height="60" as="geometry" />
        </mxCell>
        <mxCell id="_yqGc-fgBB0SN-r2A2sH-3" value="과목&lt;br&gt;(Subject)" style="rounded=0;whiteSpace=wrap;html=1;" vertex="1" parent="1">
          <mxGeometry x="60" y="430" width="120" height="60" as="geometry" />
        </mxCell>
        <mxCell id="_yqGc-fgBB0SN-r2A2sH-4" value="점수&lt;br&gt;(Score)" style="rounded=0;whiteSpace=wrap;html=1;" vertex="1" parent="1">
          <mxGeometry x="402" y="430" width="120" height="60" as="geometry" />
        </mxCell>
        <mxCell id="_yqGc-fgBB0SN-r2A2sH-5" value="학번&lt;br&gt;(no)" style="ellipse;whiteSpace=wrap;html=1;" vertex="1" parent="1">
          <mxGeometry x="160" y="197" width="70" height="40" as="geometry" />
        </mxCell>
        <mxCell id="_yqGc-fgBB0SN-r2A2sH-6" value="이름&lt;br&gt;(name)" style="ellipse;whiteSpace=wrap;html=1;" vertex="1" parent="1">
          <mxGeometry x="250" y="197" width="70" height="40" as="geometry" />
        </mxCell>
        <mxCell id="_yqGc-fgBB0SN-r2A2sH-7" value="필수과목&lt;br&gt;(subject)" style="ellipse;whiteSpace=wrap;html=1;" vertex="1" parent="1">
          <mxGeometry x="340" y="197" width="70" height="40" as="geometry" />
        </mxCell>
        <mxCell id="_yqGc-fgBB0SN-r2A2sH-8" value="과목코드&lt;br&gt;(code)" style="ellipse;whiteSpace=wrap;html=1;" vertex="1" parent="1">
          <mxGeometry x="-20" y="530" width="70" height="40" as="geometry" />
        </mxCell>
        <mxCell id="_yqGc-fgBB0SN-r2A2sH-9" value="평가방법&lt;br&gt;(style)" style="ellipse;whiteSpace=wrap;html=1;" vertex="1" parent="1">
          <mxGeometry x="70" y="530" width="70" height="40" as="geometry" />
        </mxCell>
        <mxCell id="_yqGc-fgBB0SN-r2A2sH-10" value="과목명&lt;br&gt;(name)" style="ellipse;whiteSpace=wrap;html=1;" vertex="1" parent="1">
          <mxGeometry x="160" y="530" width="70" height="40" as="geometry" />
        </mxCell>
        <mxCell id="_yqGc-fgBB0SN-r2A2sH-11" value="학번&lt;br&gt;(no)" style="ellipse;whiteSpace=wrap;html=1;" vertex="1" parent="1">
          <mxGeometry x="327" y="528" width="70" height="40" as="geometry" />
        </mxCell>
        <mxCell id="_yqGc-fgBB0SN-r2A2sH-12" value="과목&lt;br&gt;(subject)" style="ellipse;whiteSpace=wrap;html=1;" vertex="1" parent="1">
          <mxGeometry x="422" y="528" width="70" height="40" as="geometry" />
        </mxCell>
        <mxCell id="_yqGc-fgBB0SN-r2A2sH-13" value="점수&lt;br&gt;(point)" style="ellipse;whiteSpace=wrap;html=1;" vertex="1" parent="1">
          <mxGeometry x="522" y="528" width="70" height="40" as="geometry" />
        </mxCell>
        <mxCell id="_yqGc-fgBB0SN-r2A2sH-15" value="1" style="text;html=1;align=center;verticalAlign=middle;whiteSpace=wrap;rounded=0;" vertex="1" parent="1">
          <mxGeometry x="340" y="277" width="30" height="30" as="geometry" />
        </mxCell>
        <mxCell id="_yqGc-fgBB0SN-r2A2sH-16" value="n" style="text;html=1;align=center;verticalAlign=middle;whiteSpace=wrap;rounded=0;" vertex="1" parent="1">
          <mxGeometry x="456" y="400" width="30" height="30" as="geometry" />
        </mxCell>
        <mxCell id="_yqGc-fgBB0SN-r2A2sH-20" value="1" style="text;html=1;align=center;verticalAlign=middle;whiteSpace=wrap;rounded=0;" vertex="1" parent="1">
          <mxGeometry x="90" y="400" width="30" height="30" as="geometry" />
        </mxCell>
        <mxCell id="_yqGc-fgBB0SN-r2A2sH-21" value="n" style="text;html=1;align=center;verticalAlign=middle;whiteSpace=wrap;rounded=0;" vertex="1" parent="1">
          <mxGeometry x="190" y="277" width="30" height="30" as="geometry" />
        </mxCell>
        <mxCell id="_yqGc-fgBB0SN-r2A2sH-22" value="" style="endArrow=none;html=1;rounded=0;exitX=1;exitY=0.5;exitDx=0;exitDy=0;entryX=0;entryY=0.5;entryDx=0;entryDy=0;" edge="1" parent="1" source="_yqGc-fgBB0SN-r2A2sH-3" target="_yqGc-fgBB0SN-r2A2sH-4">
          <mxGeometry width="50" height="50" relative="1" as="geometry">
            <mxPoint x="210" y="490" as="sourcePoint" />
            <mxPoint x="260" y="440" as="targetPoint" />
          </mxGeometry>
        </mxCell>
        <mxCell id="_yqGc-fgBB0SN-r2A2sH-23" value="1" style="text;html=1;align=center;verticalAlign=middle;whiteSpace=wrap;rounded=0;" vertex="1" parent="1">
          <mxGeometry x="180" y="430" width="30" height="30" as="geometry" />
        </mxCell>
        <mxCell id="_yqGc-fgBB0SN-r2A2sH-24" value="1" style="text;html=1;align=center;verticalAlign=middle;whiteSpace=wrap;rounded=0;" vertex="1" parent="1">
          <mxGeometry x="340" y="430" width="30" height="30" as="geometry" />
        </mxCell>
        <mxCell id="_yqGc-fgBB0SN-r2A2sH-28" value="" style="endArrow=none;html=1;rounded=0;exitX=0.5;exitY=0;exitDx=0;exitDy=0;entryX=0.5;entryY=1;entryDx=0;entryDy=0;" edge="1" parent="1" source="_yqGc-fgBB0SN-r2A2sH-2" target="_yqGc-fgBB0SN-r2A2sH-5">
          <mxGeometry width="50" height="50" relative="1" as="geometry">
            <mxPoint x="170" y="420" as="sourcePoint" />
            <mxPoint x="220" y="370" as="targetPoint" />
          </mxGeometry>
        </mxCell>
        <mxCell id="_yqGc-fgBB0SN-r2A2sH-29" value="" style="endArrow=none;html=1;rounded=0;exitX=0.5;exitY=1;exitDx=0;exitDy=0;" edge="1" parent="1" source="_yqGc-fgBB0SN-r2A2sH-6" target="_yqGc-fgBB0SN-r2A2sH-2">
          <mxGeometry width="50" height="50" relative="1" as="geometry">
            <mxPoint x="170" y="420" as="sourcePoint" />
            <mxPoint x="220" y="370" as="targetPoint" />
          </mxGeometry>
        </mxCell>
        <mxCell id="_yqGc-fgBB0SN-r2A2sH-30" value="" style="endArrow=none;html=1;rounded=0;exitX=0.429;exitY=0.982;exitDx=0;exitDy=0;exitPerimeter=0;entryX=0.5;entryY=0;entryDx=0;entryDy=0;" edge="1" parent="1" source="_yqGc-fgBB0SN-r2A2sH-7" target="_yqGc-fgBB0SN-r2A2sH-2">
          <mxGeometry width="50" height="50" relative="1" as="geometry">
            <mxPoint x="170" y="420" as="sourcePoint" />
            <mxPoint x="220" y="370" as="targetPoint" />
          </mxGeometry>
        </mxCell>
        <mxCell id="_yqGc-fgBB0SN-r2A2sH-31" value="" style="endArrow=none;html=1;rounded=0;entryX=0.5;entryY=1;entryDx=0;entryDy=0;exitX=0.5;exitY=0;exitDx=0;exitDy=0;" edge="1" parent="1" source="_yqGc-fgBB0SN-r2A2sH-8" target="_yqGc-fgBB0SN-r2A2sH-3">
          <mxGeometry width="50" height="50" relative="1" as="geometry">
            <mxPoint x="170" y="420" as="sourcePoint" />
            <mxPoint x="220" y="370" as="targetPoint" />
          </mxGeometry>
        </mxCell>
        <mxCell id="_yqGc-fgBB0SN-r2A2sH-32" value="" style="endArrow=none;html=1;rounded=0;exitX=0.555;exitY=-0.071;exitDx=0;exitDy=0;exitPerimeter=0;entryX=0.5;entryY=1;entryDx=0;entryDy=0;" edge="1" parent="1" source="_yqGc-fgBB0SN-r2A2sH-9" target="_yqGc-fgBB0SN-r2A2sH-3">
          <mxGeometry width="50" height="50" relative="1" as="geometry">
            <mxPoint x="170" y="420" as="sourcePoint" />
            <mxPoint x="220" y="370" as="targetPoint" />
          </mxGeometry>
        </mxCell>
        <mxCell id="_yqGc-fgBB0SN-r2A2sH-33" value="" style="endArrow=none;html=1;rounded=0;exitX=0.5;exitY=0;exitDx=0;exitDy=0;entryX=0.5;entryY=1;entryDx=0;entryDy=0;" edge="1" parent="1" source="_yqGc-fgBB0SN-r2A2sH-10" target="_yqGc-fgBB0SN-r2A2sH-3">
          <mxGeometry width="50" height="50" relative="1" as="geometry">
            <mxPoint x="170" y="420" as="sourcePoint" />
            <mxPoint x="220" y="370" as="targetPoint" />
          </mxGeometry>
        </mxCell>
        <mxCell id="_yqGc-fgBB0SN-r2A2sH-34" value="" style="endArrow=none;html=1;rounded=0;exitX=0.5;exitY=0;exitDx=0;exitDy=0;entryX=0.5;entryY=1;entryDx=0;entryDy=0;" edge="1" parent="1" source="_yqGc-fgBB0SN-r2A2sH-11" target="_yqGc-fgBB0SN-r2A2sH-4">
          <mxGeometry width="50" height="50" relative="1" as="geometry">
            <mxPoint x="170" y="420" as="sourcePoint" />
            <mxPoint x="220" y="370" as="targetPoint" />
          </mxGeometry>
        </mxCell>
        <mxCell id="_yqGc-fgBB0SN-r2A2sH-35" value="" style="endArrow=none;html=1;rounded=0;exitX=0.5;exitY=0;exitDx=0;exitDy=0;entryX=0.5;entryY=1;entryDx=0;entryDy=0;" edge="1" parent="1" source="_yqGc-fgBB0SN-r2A2sH-12" target="_yqGc-fgBB0SN-r2A2sH-4">
          <mxGeometry width="50" height="50" relative="1" as="geometry">
            <mxPoint x="170" y="420" as="sourcePoint" />
            <mxPoint x="220" y="370" as="targetPoint" />
          </mxGeometry>
        </mxCell>
        <mxCell id="_yqGc-fgBB0SN-r2A2sH-36" value="" style="endArrow=none;html=1;rounded=0;exitX=0.5;exitY=0;exitDx=0;exitDy=0;entryX=0.5;entryY=1;entryDx=0;entryDy=0;" edge="1" parent="1" source="_yqGc-fgBB0SN-r2A2sH-13" target="_yqGc-fgBB0SN-r2A2sH-4">
          <mxGeometry width="50" height="50" relative="1" as="geometry">
            <mxPoint x="170" y="420" as="sourcePoint" />
            <mxPoint x="430" y="490" as="targetPoint" />
          </mxGeometry>
        </mxCell>
        <mxCell id="_yqGc-fgBB0SN-r2A2sH-38" value="수강" style="rhombus;whiteSpace=wrap;html=1;" vertex="1" parent="1">
          <mxGeometry x="80" y="287" width="80" height="40" as="geometry" />
        </mxCell>
        <mxCell id="_yqGc-fgBB0SN-r2A2sH-39" value="" style="endArrow=classic;html=1;rounded=0;entryX=1;entryY=0.5;entryDx=0;entryDy=0;exitX=0;exitY=0.5;exitDx=0;exitDy=0;" edge="1" parent="1" source="_yqGc-fgBB0SN-r2A2sH-2" target="_yqGc-fgBB0SN-r2A2sH-38">
          <mxGeometry width="50" height="50" relative="1" as="geometry">
            <mxPoint x="170" y="420" as="sourcePoint" />
            <mxPoint x="220" y="370" as="targetPoint" />
          </mxGeometry>
        </mxCell>
        <mxCell id="_yqGc-fgBB0SN-r2A2sH-40" value="" style="endArrow=classic;html=1;rounded=0;exitX=0.5;exitY=1;exitDx=0;exitDy=0;entryX=0.5;entryY=0;entryDx=0;entryDy=0;" edge="1" parent="1" source="_yqGc-fgBB0SN-r2A2sH-38" target="_yqGc-fgBB0SN-r2A2sH-3">
          <mxGeometry width="50" height="50" relative="1" as="geometry">
            <mxPoint x="170" y="420" as="sourcePoint" />
            <mxPoint x="220" y="370" as="targetPoint" />
          </mxGeometry>
        </mxCell>
        <mxCell id="_yqGc-fgBB0SN-r2A2sH-41" value="응시" style="rhombus;whiteSpace=wrap;html=1;" vertex="1" parent="1">
          <mxGeometry x="405" y="287" width="80" height="40" as="geometry" />
        </mxCell>
        <mxCell id="_yqGc-fgBB0SN-r2A2sH-42" value="" style="endArrow=classic;html=1;rounded=0;exitX=1;exitY=0.5;exitDx=0;exitDy=0;entryX=0;entryY=0.5;entryDx=0;entryDy=0;" edge="1" parent="1" source="_yqGc-fgBB0SN-r2A2sH-2" target="_yqGc-fgBB0SN-r2A2sH-41">
          <mxGeometry width="50" height="50" relative="1" as="geometry">
            <mxPoint x="170" y="420" as="sourcePoint" />
            <mxPoint x="220" y="370" as="targetPoint" />
          </mxGeometry>
        </mxCell>
        <mxCell id="_yqGc-fgBB0SN-r2A2sH-43" value="" style="endArrow=classic;html=1;rounded=0;entryX=0;entryY=1;entryDx=0;entryDy=0;exitX=0.5;exitY=1;exitDx=0;exitDy=0;" edge="1" parent="1" source="_yqGc-fgBB0SN-r2A2sH-41" target="_yqGc-fgBB0SN-r2A2sH-16">
          <mxGeometry width="50" height="50" relative="1" as="geometry">
            <mxPoint x="471" y="327" as="sourcePoint" />
            <mxPoint x="246" y="370" as="targetPoint" />
          </mxGeometry>
        </mxCell>
        <mxCell id="_yqGc-fgBB0SN-r2A2sH-44" value="&lt;font style=&quot;font-size: 18px;&quot;&gt;Entity&lt;/font&gt;" style="rounded=0;whiteSpace=wrap;html=1;" vertex="1" parent="1">
          <mxGeometry x="-100" y="190" width="120" height="60" as="geometry" />
        </mxCell>
        <mxCell id="_yqGc-fgBB0SN-r2A2sH-45" value="Attribute" style="ellipse;whiteSpace=wrap;html=1;fontSize=18;" vertex="1" parent="1">
          <mxGeometry x="-100" y="277" width="120" height="43" as="geometry" />
        </mxCell>
        <mxCell id="_yqGc-fgBB0SN-r2A2sH-46" value="Relation" style="rhombus;whiteSpace=wrap;html=1;fontSize=18;" vertex="1" parent="1">
          <mxGeometry x="-110" y="340" width="140" height="40" as="geometry" />
        </mxCell>
        <mxCell id="_yqGc-fgBB0SN-r2A2sH-47" value="정보공학적 ERD(Entity Relationship Diagram)" style="text;html=1;align=center;verticalAlign=middle;whiteSpace=wrap;rounded=0;fontSize=24;" vertex="1" parent="1">
          <mxGeometry x="-20" y="620" width="570" height="30" as="geometry" />
        </mxCell>
        <mxCell id="_yqGc-fgBB0SN-r2A2sH-48" value="" style="endArrow=none;html=1;rounded=0;" edge="1" parent="1">
          <mxGeometry width="50" height="50" relative="1" as="geometry">
            <mxPoint x="-80" y="450" as="sourcePoint" />
            <mxPoint y="450" as="targetPoint" />
          </mxGeometry>
        </mxCell>
        <mxCell id="_yqGc-fgBB0SN-r2A2sH-50" value="" style="endArrow=classic;html=1;rounded=0;" edge="1" parent="1">
          <mxGeometry width="50" height="50" relative="1" as="geometry">
            <mxPoint x="-80" y="430" as="sourcePoint" />
            <mxPoint y="430" as="targetPoint" />
          </mxGeometry>
        </mxCell>
        <mxCell id="_yqGc-fgBB0SN-r2A2sH-51" value="Link" style="text;html=1;align=center;verticalAlign=middle;whiteSpace=wrap;rounded=0;fontSize=18;" vertex="1" parent="1">
          <mxGeometry x="-70" y="400" width="60" height="30" as="geometry" />
        </mxCell>
        <mxCell id="_yqGc-fgBB0SN-r2A2sH-52" value="&amp;nbsp;채점" style="rhombus;whiteSpace=wrap;html=1;" vertex="1" parent="1">
          <mxGeometry x="225" y="440" width="80" height="40" as="geometry" />
        </mxCell>
      </root>
    </mxGraphModel>
  </diagram>
</mxfile>
